<svg id="svg" version="1.1" mlns="http://www.w3.org/2000/svg"> <circle cx="72" cy="72" r="70" fill="#FFCC4D"/> <path d="M44.269 41.212 C 41.443 42.576,38.000 49.599,38.000 54.000 C 38.000 59.018,41.542 65.568,45.038 67.016 C 49.427 68.834,53.409 66.852,55.962 61.579 C 58.538 56.257,58.545 51.758,55.985 46.470 C 53.228 40.774,49.056 38.902,44.269 41.212 M92.269 41.212 C 89.443 42.576,86.000 49.599,86.000 54.000 C 86.000 59.018,89.542 65.568,93.038 67.016 C 97.427 68.834,101.409 66.852,103.962 61.579 C 106.538 56.257,106.545 51.758,103.985 46.470 C 101.228 40.774,97.056 38.902,92.269 41.212 M42.371 93.475 C 41.018 97.002,48.841 105.687,56.500 109.160 C 60.685 111.057,63.211 111.425,72.000 111.416 C 84.467 111.404,90.788 109.191,96.538 102.827 C 103.948 94.625,103.615 90.120,95.917 94.423 C 82.702 101.809,61.319 101.821,48.130 94.449 C 42.971 91.566,43.096 91.587,42.371 93.475" stroke="none" fill="#664500" fill-rule="evenodd"/> </svg>

<?xml version="1.0" encoding="UTF-8" standalone="no"?>
<svg xmlns:dc="http://purl.org/dc/elements/1.1/" xmlns:cc="http://creativecommons.org/ns#" xmlns:rdf="http://www.w3.org/1999/02/22-rdf-syntax-ns#" xmlns:svg="http://www.w3.org/2000/svg" xmlns="http://www.w3.org/2000/svg" viewBox="0 0 47.5 47.5" style="enable-background:new 0 0 47.5 47.5;" xml:space="preserve" version="1.1" id="svg2">
    <metadata id="metadata8">
        <rdf:RDF><cc:Work rdf:about="">
            <dc:format>image/svg+xml
            </dc:format>
            <dc:type rdf:resource="http://purl.org/dc/dcmitype/StillImage"/>
        </cc:Work>
        </rdf:RDF>
    </metadata>
    <defs id="defs6">
        <clipPath id="clipPath16" clipPathUnits="userSpaceOnUse">
            <path id="path18" d="M 0,38 38,38 38,0 0,0 0,38 Z"/>
        </clipPath>
    </defs>
    <g transform="matrix(1.25,0,0,-1.25,0,47.5)" id="g10">
        <g id="g12"><g clip-path="url(#clipPath16)" id="g14">
            <g transform="translate(36,19)" id="g20">
                <path id="path22" style="fill:#ffcc4d;fill-opacity:1;fill-rule:nonzero;stroke:none" d="m 0,0 c 0,-9.389 -7.611,-17 -17,-17 -9.388,0 -17,7.611 -17,17 0,9.388 7.612,17 17,17 C -7.611,17 0,9.388 0,0"/>
            </g>
            <g transform="translate(15,20.5)" id="g24">
                <path id="path26" style="fill:#664500;fill-opacity:1;fill-rule:nonzero;stroke:none" d="M 0,0 C 0,-1.934 -1.119,-3.5 -2.5,-3.5 -3.881,-3.5 -5,-1.934 -5,0 -5,1.933 -3.881,3.5 -2.5,3.5 -1.119,3.5 0,1.933 0,0"/>
            </g>
            <g transform="translate(28,20.5)" id="g28">
                <path id="path30" style="fill:#664500;fill-opacity:1;fill-rule:nonzero;stroke:none" d="M 0,0 C 0,-1.934 -1.119,-3.5 -2.5,-3.5 -3.881,-3.5 -5,-1.934 -5,0 -5,1.933 -3.881,3.5 -2.5,3.5 -1.119,3.5 0,1.933 0,0"/>
            </g>
            
            <g transform="translate(26,11)" id="g32">
                <path id="path34" style="fill:#664500;fill-opacity:1;fill-rule:nonzero;stroke:none" d="m 0,0 -14,0 c -0.552,0 -1,0.447 -1,1 0,0.553 0.448,1 1,1 L 0,2 C 0.553,2 1,1.553 1,1 1,0.447 0.553,0 0,0"/>
            </g>
        </g>
        </g>
    </g>
</svg>
