<svg id="svg" version="1.1" mlns="http://www.w3.org/2000/svg"> <circle cx="72" cy="72" r="70" fill="#FFCC4D"/> <path d="M44.269 41.212 C 41.443 42.576,38.000 49.599,38.000 54.000 C 38.000 59.018,41.542 65.568,45.038 67.016 C 49.427 68.834,53.409 66.852,55.962 61.579 C 58.538 56.257,58.545 51.758,55.985 46.470 C 53.228 40.774,49.056 38.902,44.269 41.212 M92.269 41.212 C 89.443 42.576,86.000 49.599,86.000 54.000 C 86.000 59.018,89.542 65.568,93.038 67.016 C 97.427 68.834,101.409 66.852,103.962 61.579 C 106.538 56.257,106.545 51.758,103.985 46.470 C 101.228 40.774,97.056 38.902,92.269 41.212 M42.371 93.475 C 41.018 97.002,48.841 105.687,56.500 109.160 C 60.685 111.057,63.211 111.425,72.000 111.416 C 84.467 111.404,90.788 109.191,96.538 102.827 C 103.948 94.625,103.615 90.120,95.917 94.423 C 82.702 101.809,61.319 101.821,48.130 94.449 C 42.971 91.566,43.096 91.587,42.371 93.475" stroke="none" fill="#664500" fill-rule="evenodd"/> </svg>
